# xmcd
#
# Track frame offsets:
# 150
# 15796
# 34442
# 47245
# 63921
# 76923
# 92792
# 108691
# 123075
# 138389
# 152133
# 165349
# 177777
# 193246
# 207155
# 225058
# 244366
#
# Disc length: 3467 seconds
#
#
# Revision: 0
# Processed by: cddbd v1.5.2PL0 Copyright (c) Steve Scherf et al.
# Submitted via: FreeRIP 2.944 
#
DISCID=d60d8911
DTITLE=João Victor e Raul - - João Victor e Raul  no Boteco
DYEAR=2007
DGENRE=sertaneja
TTITLE0=João Victor e Raul - Metade do meu coração
TTITLE1=João Victor e Raul - Vem ficar comigo
TTITLE2=João Victor e Raul - Deus te fez assim
TTITLE3=João Victor e Raul - Minha doce paixão
TTITLE4=João Victor e Raul - Brincadeira tem hora
TTITLE5=João Victor e Raul - Cadê o seu sorriso
TTITLE6=João Victor e Raul - Papo de escola
TTITLE7=João Victor e Raul - Multidão
TTITLE8=João Victor e Raul - Espuma de cerveja
TTITLE9=João Victor e Raul - Onde foi que eu errei
TTITLE10=João Victor e Raul - Deixa a poeira voar
TTITLE11=João Victor e Raul - Só fazendo amor
TTITLE12=João Victor e Raul - Nos dois
TTITLE13=João Victor e Raul - A saudade não passa
TTITLE14=João Victor e Raul - Decida de uma vez
TTITLE15=João Victor e Raul - Pedindo amor
TTITLE16=João Victor e Raul - Feliz da vida
EXTD=
EXTT0=
EXTT1=
EXTT2=
EXTT3=
EXTT4=
EXTT5=
EXTT6=
EXTT7=
EXTT8=
EXTT9=
EXTT10=
EXTT11=
EXTT12=
EXTT13=
EXTT14=
EXTT15=
EXTT16=
PLAYORDER=
